<svg xmlns="http://www.w3.org/2000/svg" viewBox="0 0 64 64" role="img" aria-labelledby="echeveria-arctic-ice-title echeveria-arctic-ice-description" data-plant-slug="echeveria-arctic-ice" focusable="false">
  <title id="echeveria-arctic-ice-title">Arctic Ice echeveria plant portrait</title>
  <desc id="echeveria-arctic-ice-description">A schematic pale blue-green rosette in a tall blue-and-white glazed pot with a dark blue diamond pattern, following owner photographs of #11 / P37.</desc>
  <defs>
    <linearGradient id="arctic-pot-glaze" x1="0" y1="0" x2="1" y2="0">
      <stop offset="0" stop-color="#728bb4" />
      <stop offset="0.24" stop-color="#c8d9e4" />
      <stop offset="0.62" stop-color="#a5bed6" />
      <stop offset="1" stop-color="#667fa7" />
    </linearGradient>
    <linearGradient id="arctic-pot-shade" x1="0" y1="0" x2="0" y2="1">
      <stop offset="0" stop-color="#fffdf0" stop-opacity="0.14" />
      <stop offset="1" stop-color="#263e70" stop-opacity="0.24" />
    </linearGradient>
    <path id="arctic-pot-body" d="M10 29H54L52.4 51.8C52 56.4 43.1 59.5 32 59.5S12 56.4 11.6 51.8Z" />
    <clipPath id="arctic-pot-clip">
      <use href="#arctic-pot-body" />
    </clipPath>
    <path id="arctic-leaf" d="M0 3C-4 1-8-3-9-8-10-13-7-19-2-21L0-23 2-21C7-19 10-13 9-8 8-3 4 1 0 3Z" />
  </defs>
  <ellipse cx="32" cy="59" rx="19.5" ry="2.1" fill="#263f4a" opacity="0.14" />
  <use href="#arctic-pot-body" fill="url(#arctic-pot-glaze)" stroke="#526b8e" stroke-width="1" />
  <g clip-path="url(#arctic-pot-clip)" fill="none" stroke-linecap="round" stroke-linejoin="round">
    <path d="M8 31 14 44 8 57M14 31 21 44 14 58 8 44ZM21 31 28 45 21 59 14 44ZM28 32 35 46 28 60 21 45ZM35 32 42 45 35 60 28 46ZM42 31 49 44 42 59 35 45ZM49 30 55 43 49 57 42 44ZM55 30 61 43 55 57 49 43" stroke="#436b9b" stroke-width="1.1" />
    <path d="M14 32V56M21 32V58M28 33V59M35 33V59M42 32V58M49 31V55" stroke="#e2e9e9" stroke-width="0.7" opacity="0.65" />
    <use href="#arctic-pot-body" fill="url(#arctic-pot-shade)" stroke="none" />
    <path d="M13.6 34.5 14.4 44.5M14.7 47 15.1 50.5" stroke="#f5fbf5" stroke-width="1.4" opacity="0.62" />
  </g>
  <ellipse cx="32" cy="29" rx="22" ry="7.7" fill="#b9c8d5" stroke="#596f8e" stroke-width="1" />
  <ellipse cx="32" cy="29" rx="20.5" ry="6.4" fill="#4d5254" stroke="#dce2dd" stroke-width="0.7" />
  <g fill="#9d8d71" stroke="#696759" stroke-width="0.35">
    <path d="m13.5 29 2-1 2 1.8-2.3 1.2Z" />
    <path d="m18 32.3 2-0.6 1.8 1.6-2.4 0.7Z" fill="#c8bc94" />
    <path d="m44.7 31.8 2-1.2 2.2 1.1-1.1 1.5Z" />
    <path d="m48.5 28.3 1.5-0.8 1.2 1.5-1.5 0.8Z" fill="#c3bfa5" />
  </g>
  <g transform="translate(32 22.4) scale(1 0.61)" stroke="#668b80" stroke-width="0.8" stroke-linejoin="round">
    <use href="#arctic-leaf" transform="rotate(0) scale(0.83 0.87)" fill="#d3e5cf" />
    <use href="#arctic-leaf" transform="rotate(35) scale(0.9 0.98)" fill="#d9e8d9" />
    <use href="#arctic-leaf" transform="rotate(70) scale(0.92 0.99)" fill="#c9dfd6" />
    <use href="#arctic-leaf" transform="rotate(105)" fill="#d9e7df" />
    <use href="#arctic-leaf" transform="rotate(140) scale(0.92 0.97)" fill="#bcd5cb" />
    <use href="#arctic-leaf" transform="rotate(175) scale(0.92 0.98)" fill="#d5e6dc" />
    <use href="#arctic-leaf" transform="rotate(210) scale(0.95 0.97)" fill="#dcebe0" />
    <use href="#arctic-leaf" transform="rotate(245) scale(0.9 1.02)" fill="#c6dcd3" />
    <use href="#arctic-leaf" transform="rotate(280)" fill="#d9e8db" />
    <use href="#arctic-leaf" transform="rotate(320) scale(0.9 0.98)" fill="#cadfcf" />
    <use href="#arctic-leaf" transform="rotate(15) scale(0.66 0.71)" fill="#dbe9ce" />
    <use href="#arctic-leaf" transform="rotate(65) scale(0.66 0.72)" fill="#c4dcc7" />
    <use href="#arctic-leaf" transform="rotate(115) scale(0.66 0.72)" fill="#dcebd9" />
    <use href="#arctic-leaf" transform="rotate(170) scale(0.66 0.72)" fill="#c9e0ce" />
    <use href="#arctic-leaf" transform="rotate(225) scale(0.66 0.72)" fill="#dcebd7" />
    <use href="#arctic-leaf" transform="rotate(280) scale(0.66 0.74)" fill="#d4e5ce" />
    <use href="#arctic-leaf" transform="rotate(330) scale(0.61 0.72)" fill="#bcd8bd" />
    <use href="#arctic-leaf" transform="rotate(20) scale(0.36 0.43)" fill="#dcebd0" />
    <use href="#arctic-leaf" transform="rotate(140) scale(0.36 0.43)" fill="#c2dcbd" />
    <use href="#arctic-leaf" transform="rotate(260) scale(0.36 0.43)" fill="#d9e9cf" />
    <path d="M0-5C-3-3-3 1 0 3 3 1 3-3 0-5Z" fill="#a9cca9" />
  </g>
  <path d="M12 31.5C16 35 24 36.7 32 36.7S48 35 52 31.5" fill="none" stroke="#ecede1" stroke-width="0.65" opacity="0.65" />
</svg>
