<svg xmlns="http://www.w3.org/2000/svg" viewBox="0 0 24 24" role="img" aria-labelledby="title">
  <title id="title">Old Man of the Andes plant portrait</title>
  <path d="M8.1 17.8V7.2c0-3 1.5-4.8 3.9-4.8s3.9 1.8 3.9 4.8v10.6Z" fill="#77ad79" stroke="#173c2b" stroke-linejoin="round" stroke-width="1"/>
  <path d="M9.1 3.8c.7-1.5 1.7-2.2 2.9-2.2s2.2.7 2.9 2.2" fill="#f7f1dc" stroke="#6f8067" stroke-linecap="round" stroke-width=".65"/>
  <path d="M9.1 4.6c1.3 2.1-.8 3.5.3 5.6s-.8 3.7.3 6.5m2-13.2c1 2.4-.9 3.8.2 6.1s-.8 4 .2 7m2-12c-1.1 2.3.8 3.7-.3 5.9s.8 3.8-.2 6.2" fill="none" stroke="#f7f1dc" stroke-linecap="round" stroke-width="1.15"/>
  <path d="m7.7 7.2 2.2.9m4.8.2 2.1-1.1M7.7 11.8l2.1.6m4.9.6 2.1.8m-8.9 2 2.1.4m4.6-.2 2.1-.6" fill="none" stroke="#c95b50" stroke-linecap="round" stroke-width=".75"/>
  <path d="M6.3 17.2h11.4l-1.3 4.2H7.6z" fill="#d9784a" stroke="#6c432b" stroke-linejoin="round" stroke-width="1"/>
  <path d="M7.1 18.4h9.8" fill="none" stroke="#f2ad72" stroke-linecap="round" stroke-width=".55"/>
</svg>
