<svg xmlns="http://www.w3.org/2000/svg" viewBox="0 0 64 64" role="img" aria-labelledby="parodia-leninghausii-title parodia-leninghausii-description" data-plant-slug="parodia-leninghausii" focusable="false">
  <title id="parodia-leninghausii-title">Yellow tower cactus plant portrait</title>
  <desc id="parodia-leninghausii-description">An upright green cactus densely covered with golden ribs and radial spines in a purple planter.</desc>
  <defs>
      <linearGradient id="parodia-pot" x1="0" x2="0.9" y1="0" y2="1">
          <stop offset="0" stop-color="#af81cd" />
          <stop offset="1" stop-color="#6a479a" />
      </linearGradient>
      <linearGradient id="goldtower-body" x1="0" y1="0" x2="1" y2="0">
          <stop offset="0" stop-color="#5a8256" />
          <stop offset="0.5" stop-color="#99ac6f" />
          <stop offset="1" stop-color="#536f4e" />
      </linearGradient>
      <clipPath id="goldtower-clip" clipPathUnits="userSpaceOnUse">
          <path
              d="M18 47V27c0-13 5-19 14-19s14 6 14 19v20Z"
              fill="none"
              stroke="none"
              stroke-width="1"
              stroke-linecap="round"
              stroke-linejoin="round"
          />
      </clipPath>
      <g id="parodia-leninghausii-detail-1">
          <path
              d="M-2.8 0H2.8M-2-1.8 2 1.8M-2 1.8 2-1.8M0-2.8V2.8"
              fill="none"
              stroke="#e9c766"
              stroke-width="0.48"
              stroke-linecap="round"
              stroke-linejoin="round"
          />
          <ellipse
              cx="0"
              cy="0"
              rx="0.62"
              ry="0.62"
              fill="#e3c994"
              stroke="none"
              stroke-width="1"
          />
      </g>
      <g id="parodia-leninghausii-detail-2">
          <path
              d="M-2.8 0H2.8M-2-1.8 2 1.8M-2 1.8 2-1.8M0-2.8V2.8"
              fill="none"
              stroke="#d9c183"
              stroke-width="0.48"
              stroke-linecap="round"
              stroke-linejoin="round"
          />
          <ellipse
              cx="0"
              cy="0"
              rx="0.62"
              ry="0.62"
              fill="#e3c994"
              stroke="none"
              stroke-width="1"
          />
      </g>
  </defs>
  <ellipse
      cx="32"
      cy="60.5"
      rx="16"
      ry="1.9"
      fill="#244b3b"
      stroke="none"
      stroke-width="0"
      opacity="0.12"
  />
  <ellipse
      cx="32"
      cy="45.5"
      rx="16"
      ry="2.1"
      fill="#745c45"
      stroke="none"
      stroke-width="1"
  />
  <path
      d="M18 26l-1.8 0"
      fill="none"
      stroke="#c9b57b"
      stroke-width="0.45"
      stroke-linecap="round"
      stroke-linejoin="round"
  />
  <path
      d="M18.69 20.44l-1.71 -0.68"
      fill="none"
      stroke="#c9b57b"
      stroke-width="0.45"
      stroke-linecap="round"
      stroke-linejoin="round"
  />
  <path
      d="M20.67 15.42l-1.46 -1.29"
      fill="none"
      stroke="#c9b57b"
      stroke-width="0.45"
      stroke-linecap="round"
      stroke-linejoin="round"
  />
  <path
      d="M23.77 11.44l-1.06 -1.78"
      fill="none"
      stroke="#c9b57b"
      stroke-width="0.45"
      stroke-linecap="round"
      stroke-linejoin="round"
  />
  <path
      d="M27.67 8.88l-0.56 -2.09"
      fill="none"
      stroke="#c9b57b"
      stroke-width="0.45"
      stroke-linecap="round"
      stroke-linejoin="round"
  />
  <path
      d="M32 8l0 -2.2"
      fill="none"
      stroke="#c9b57b"
      stroke-width="0.45"
      stroke-linecap="round"
      stroke-linejoin="round"
  />
  <path
      d="M36.33 8.88l0.56 -2.09"
      fill="none"
      stroke="#c9b57b"
      stroke-width="0.45"
      stroke-linecap="round"
      stroke-linejoin="round"
  />
  <path
      d="M40.23 11.44l1.06 -1.78"
      fill="none"
      stroke="#c9b57b"
      stroke-width="0.45"
      stroke-linecap="round"
      stroke-linejoin="round"
  />
  <path
      d="M43.33 15.42l1.46 -1.29"
      fill="none"
      stroke="#c9b57b"
      stroke-width="0.45"
      stroke-linecap="round"
      stroke-linejoin="round"
  />
  <path
      d="M45.31 20.44l1.71 -0.68"
      fill="none"
      stroke="#c9b57b"
      stroke-width="0.45"
      stroke-linecap="round"
      stroke-linejoin="round"
  />
  <path
      d="M46 26l1.8 0"
      fill="none"
      stroke="#c9b57b"
      stroke-width="0.45"
      stroke-linecap="round"
      stroke-linejoin="round"
  />
  <path
      d="M18 47V27c0-13 5-19 14-19s14 6 14 19v20Z"
      fill="url(#goldtower-body)"
      stroke="#526f48"
      stroke-width="1.2"
      stroke-linecap="round"
      stroke-linejoin="round"
  />
  <g clip-path="url(#goldtower-clip)">
      <path
          d="M32 8Q18.5 10 18.5 24V47"
          fill="none"
          stroke="#d0be77"
          stroke-width="0.65"
          stroke-linecap="round"
          stroke-linejoin="round"
      />
      <use
          href="#parodia-leninghausii-detail-1"
          transform="translate(18.5 14) scale(0.58)"
      />
      <use
          href="#parodia-leninghausii-detail-1"
          transform="translate(18.5 17.8) scale(0.58)"
      />
      <use
          href="#parodia-leninghausii-detail-2"
          transform="translate(18.5 21.6) scale(0.58)"
      />
      <use
          href="#parodia-leninghausii-detail-2"
          transform="translate(18.5 25.4) scale(0.58)"
      />
      <use
          href="#parodia-leninghausii-detail-2"
          transform="translate(18.5 29.2) scale(0.58)"
      />
      <use
          href="#parodia-leninghausii-detail-2"
          transform="translate(18.5 33) scale(0.58)"
      />
      <use
          href="#parodia-leninghausii-detail-2"
          transform="translate(18.5 36.8) scale(0.58)"
      />
      <use
          href="#parodia-leninghausii-detail-2"
          transform="translate(18.5 40.6) scale(0.58)"
      />
      <use
          href="#parodia-leninghausii-detail-2"
          transform="translate(18.5 44.4) scale(0.58)"
      />
      <path
          d="M32 8Q21.8 10 21.8 24V47"
          fill="none"
          stroke="#d0be77"
          stroke-width="0.65"
          stroke-linecap="round"
          stroke-linejoin="round"
      />
      <use
          href="#parodia-leninghausii-detail-1"
          transform="translate(21.8 15.9) scale(0.58)"
      />
      <use
          href="#parodia-leninghausii-detail-1"
          transform="translate(21.8 19.7) scale(0.58)"
      />
      <use
          href="#parodia-leninghausii-detail-2"
          transform="translate(21.8 23.5) scale(0.58)"
      />
      <use
          href="#parodia-leninghausii-detail-2"
          transform="translate(21.8 27.3) scale(0.58)"
      />
      <use
          href="#parodia-leninghausii-detail-2"
          transform="translate(21.8 31.1) scale(0.58)"
      />
      <use
          href="#parodia-leninghausii-detail-2"
          transform="translate(21.8 34.9) scale(0.58)"
      />
      <use
          href="#parodia-leninghausii-detail-2"
          transform="translate(21.8 38.7) scale(0.58)"
      />
      <use
          href="#parodia-leninghausii-detail-2"
          transform="translate(21.8 42.5) scale(0.58)"
      />
      <use
          href="#parodia-leninghausii-detail-2"
          transform="translate(21.8 46.3) scale(0.58)"
      />
      <path
          d="M32 8Q25.1 10 25.1 24V47"
          fill="none"
          stroke="#d0be77"
          stroke-width="0.65"
          stroke-linecap="round"
          stroke-linejoin="round"
      />
      <use
          href="#parodia-leninghausii-detail-1"
          transform="translate(25.1 14) scale(0.58)"
      />
      <use
          href="#parodia-leninghausii-detail-1"
          transform="translate(25.1 17.8) scale(0.58)"
      />
      <use
          href="#parodia-leninghausii-detail-2"
          transform="translate(25.1 21.6) scale(0.58)"
      />
      <use
          href="#parodia-leninghausii-detail-2"
          transform="translate(25.1 25.4) scale(0.58)"
      />
      <use
          href="#parodia-leninghausii-detail-2"
          transform="translate(25.1 29.2) scale(0.58)"
      />
      <use
          href="#parodia-leninghausii-detail-2"
          transform="translate(25.1 33) scale(0.58)"
      />
      <use
          href="#parodia-leninghausii-detail-2"
          transform="translate(25.1 36.8) scale(0.58)"
      />
      <use
          href="#parodia-leninghausii-detail-2"
          transform="translate(25.1 40.6) scale(0.58)"
      />
      <use
          href="#parodia-leninghausii-detail-2"
          transform="translate(25.1 44.4) scale(0.58)"
      />
      <path
          d="M32 8Q28.4 10 28.4 24V47"
          fill="none"
          stroke="#d0be77"
          stroke-width="0.65"
          stroke-linecap="round"
          stroke-linejoin="round"
      />
      <use
          href="#parodia-leninghausii-detail-1"
          transform="translate(28.4 15.9) scale(0.58)"
      />
      <use
          href="#parodia-leninghausii-detail-1"
          transform="translate(28.4 19.7) scale(0.58)"
      />
      <use
          href="#parodia-leninghausii-detail-2"
          transform="translate(28.4 23.5) scale(0.58)"
      />
      <use
          href="#parodia-leninghausii-detail-2"
          transform="translate(28.4 27.3) scale(0.58)"
      />
      <use
          href="#parodia-leninghausii-detail-2"
          transform="translate(28.4 31.1) scale(0.58)"
      />
      <use
          href="#parodia-leninghausii-detail-2"
          transform="translate(28.4 34.9) scale(0.58)"
      />
      <use
          href="#parodia-leninghausii-detail-2"
          transform="translate(28.4 38.7) scale(0.58)"
      />
      <use
          href="#parodia-leninghausii-detail-2"
          transform="translate(28.4 42.5) scale(0.58)"
      />
      <use
          href="#parodia-leninghausii-detail-2"
          transform="translate(28.4 46.3) scale(0.58)"
      />
      <path
          d="M32 8Q31.7 10 31.7 24V47"
          fill="none"
          stroke="#d0be77"
          stroke-width="0.65"
          stroke-linecap="round"
          stroke-linejoin="round"
      />
      <use
          href="#parodia-leninghausii-detail-1"
          transform="translate(31.7 14) scale(0.58)"
      />
      <use
          href="#parodia-leninghausii-detail-1"
          transform="translate(31.7 17.8) scale(0.58)"
      />
      <use
          href="#parodia-leninghausii-detail-2"
          transform="translate(31.7 21.6) scale(0.58)"
      />
      <use
          href="#parodia-leninghausii-detail-2"
          transform="translate(31.7 25.4) scale(0.58)"
      />
      <use
          href="#parodia-leninghausii-detail-2"
          transform="translate(31.7 29.2) scale(0.58)"
      />
      <use
          href="#parodia-leninghausii-detail-2"
          transform="translate(31.7 33) scale(0.58)"
      />
      <use
          href="#parodia-leninghausii-detail-2"
          transform="translate(31.7 36.8) scale(0.58)"
      />
      <use
          href="#parodia-leninghausii-detail-2"
          transform="translate(31.7 40.6) scale(0.58)"
      />
      <use
          href="#parodia-leninghausii-detail-2"
          transform="translate(31.7 44.4) scale(0.58)"
      />
      <path
          d="M32 8Q35 10 35 24V47"
          fill="none"
          stroke="#d0be77"
          stroke-width="0.65"
          stroke-linecap="round"
          stroke-linejoin="round"
      />
      <use
          href="#parodia-leninghausii-detail-1"
          transform="translate(35 15.9) scale(0.58)"
      />
      <use
          href="#parodia-leninghausii-detail-1"
          transform="translate(35 19.7) scale(0.58)"
      />
      <use
          href="#parodia-leninghausii-detail-2"
          transform="translate(35 23.5) scale(0.58)"
      />
      <use
          href="#parodia-leninghausii-detail-2"
          transform="translate(35 27.3) scale(0.58)"
      />
      <use
          href="#parodia-leninghausii-detail-2"
          transform="translate(35 31.1) scale(0.58)"
      />
      <use
          href="#parodia-leninghausii-detail-2"
          transform="translate(35 34.9) scale(0.58)"
      />
      <use
          href="#parodia-leninghausii-detail-2"
          transform="translate(35 38.7) scale(0.58)"
      />
      <use
          href="#parodia-leninghausii-detail-2"
          transform="translate(35 42.5) scale(0.58)"
      />
      <use
          href="#parodia-leninghausii-detail-2"
          transform="translate(35 46.3) scale(0.58)"
      />
      <path
          d="M32 8Q38.3 10 38.3 24V47"
          fill="none"
          stroke="#d0be77"
          stroke-width="0.65"
          stroke-linecap="round"
          stroke-linejoin="round"
      />
      <use
          href="#parodia-leninghausii-detail-1"
          transform="translate(38.3 14) scale(0.58)"
      />
      <use
          href="#parodia-leninghausii-detail-1"
          transform="translate(38.3 17.8) scale(0.58)"
      />
      <use
          href="#parodia-leninghausii-detail-2"
          transform="translate(38.3 21.6) scale(0.58)"
      />
      <use
          href="#parodia-leninghausii-detail-2"
          transform="translate(38.3 25.4) scale(0.58)"
      />
      <use
          href="#parodia-leninghausii-detail-2"
          transform="translate(38.3 29.2) scale(0.58)"
      />
      <use
          href="#parodia-leninghausii-detail-2"
          transform="translate(38.3 33) scale(0.58)"
      />
      <use
          href="#parodia-leninghausii-detail-2"
          transform="translate(38.3 36.8) scale(0.58)"
      />
      <use
          href="#parodia-leninghausii-detail-2"
          transform="translate(38.3 40.6) scale(0.58)"
      />
      <use
          href="#parodia-leninghausii-detail-2"
          transform="translate(38.3 44.4) scale(0.58)"
      />
      <path
          d="M32 8Q41.6 10 41.6 24V47"
          fill="none"
          stroke="#d0be77"
          stroke-width="0.65"
          stroke-linecap="round"
          stroke-linejoin="round"
      />
      <use
          href="#parodia-leninghausii-detail-1"
          transform="translate(41.6 15.9) scale(0.58)"
      />
      <use
          href="#parodia-leninghausii-detail-1"
          transform="translate(41.6 19.7) scale(0.58)"
      />
      <use
          href="#parodia-leninghausii-detail-2"
          transform="translate(41.6 23.5) scale(0.58)"
      />
      <use
          href="#parodia-leninghausii-detail-2"
          transform="translate(41.6 27.3) scale(0.58)"
      />
      <use
          href="#parodia-leninghausii-detail-2"
          transform="translate(41.6 31.1) scale(0.58)"
      />
      <use
          href="#parodia-leninghausii-detail-2"
          transform="translate(41.6 34.9) scale(0.58)"
      />
      <use
          href="#parodia-leninghausii-detail-2"
          transform="translate(41.6 38.7) scale(0.58)"
      />
      <use
          href="#parodia-leninghausii-detail-2"
          transform="translate(41.6 42.5) scale(0.58)"
      />
      <use
          href="#parodia-leninghausii-detail-2"
          transform="translate(41.6 46.3) scale(0.58)"
      />
      <path
          d="M32 8Q44.9 10 44.9 24V47"
          fill="none"
          stroke="#d0be77"
          stroke-width="0.65"
          stroke-linecap="round"
          stroke-linejoin="round"
      />
      <use
          href="#parodia-leninghausii-detail-1"
          transform="translate(44.9 14) scale(0.58)"
      />
      <use
          href="#parodia-leninghausii-detail-1"
          transform="translate(44.9 17.8) scale(0.58)"
      />
      <use
          href="#parodia-leninghausii-detail-2"
          transform="translate(44.9 21.6) scale(0.58)"
      />
      <use
          href="#parodia-leninghausii-detail-2"
          transform="translate(44.9 25.4) scale(0.58)"
      />
      <use
          href="#parodia-leninghausii-detail-2"
          transform="translate(44.9 29.2) scale(0.58)"
      />
      <use
          href="#parodia-leninghausii-detail-2"
          transform="translate(44.9 33) scale(0.58)"
      />
      <use
          href="#parodia-leninghausii-detail-2"
          transform="translate(44.9 36.8) scale(0.58)"
      />
      <use
          href="#parodia-leninghausii-detail-2"
          transform="translate(44.9 40.6) scale(0.58)"
      />
      <use
          href="#parodia-leninghausii-detail-2"
          transform="translate(44.9 44.4) scale(0.58)"
      />
  </g>
  <ellipse
      cx="32"
      cy="10"
      rx="3.4"
      ry="1.5"
      fill="#c2a35f"
      stroke="none"
      stroke-width="1"
  />
  <path
      d="M29 10l-0.7-3M31 9V6m2 3 1-2.5m0.5 3.3 1.7-2.6"
      fill="none"
      stroke="#ead189"
      stroke-width="0.5"
      stroke-linecap="round"
      stroke-linejoin="round"
  />
  <path
      d="M14 45h36v7H14z"
      fill="#b486d0"
      stroke="#493467"
      stroke-linejoin="round"
      stroke-width="1.7"
  />
  <path
      d="m17 52 3 9h24l3-9Z"
      fill="url(#parodia-pot)"
      stroke="#493467"
      stroke-linejoin="round"
      stroke-width="1.7"
  />
</svg>
