<svg xmlns="http://www.w3.org/2000/svg" width="64" height="64" viewBox="0 0 64 64" role="img" aria-labelledby="ui-sparkles-title" aria-describedby="ui-sparkles-description" data-ui-icon="sparkles" focusable="false">
  <title id="ui-sparkles-title">Sparkles</title>
<desc id="ui-sparkles-description">
    Three balanced four-point sparkles in gold, green, and lavender.
</desc>
<defs>
    <linearGradient
        id="ui-sparkles-gold"
        x1="12%"
        y1="0%"
        x2="88%"
        y2="100%"
    >
        <stop offset="0" stop-color="#ffe7a1" />
        <stop offset="0.52" stop-color="#ebc65d" />
        <stop offset="1" stop-color="#c29136" />
    </linearGradient>
    <linearGradient
        id="ui-sparkles-leaf"
        x1="12%"
        y1="0%"
        x2="88%"
        y2="100%"
    >
        <stop offset="0" stop-color="#a8dea1" />
        <stop offset="0.52" stop-color="#68b780" />
        <stop offset="1" stop-color="#347b62" />
    </linearGradient>
    <linearGradient
        id="ui-sparkles-purple"
        x1="12%"
        y1="0%"
        x2="88%"
        y2="100%"
    >
        <stop offset="0" stop-color="#e0c5e6" />
        <stop offset="0.52" stop-color="#b792c6" />
        <stop offset="1" stop-color="#816495" />
    </linearGradient>
</defs>
<g stroke-linecap="round" stroke-linejoin="round">
    <path
        d="M31 5l5.6 14.4L51 25l-14.4 5.6L31 45l-5.6 -14.4L11 25l14.4 -5.6Z"
        fill="url(#ui-sparkles-gold)"
        stroke="#825736"
        stroke-width="1.5"
    />
    <path
        d="M13 41l2.24 5.76L21 49l-5.76 2.24L13 57l-2.24 -5.76L5 49l5.76 -2.24Z"
        fill="url(#ui-sparkles-leaf)"
        stroke="#825736"
        stroke-width="1.5"
    />
    <path
        d="M50 39l2.8 7.2L60 49l-7.2 2.8L50 59l-2.8 -7.2L40 49l7.2 -2.8Z"
        fill="url(#ui-sparkles-purple)"
        stroke="#825736"
        stroke-width="1.5"
    />
    <path
        d="M29 13 27 21"
        fill="none"
        stroke="#fff4d8"
        stroke-width="1.5"
        opacity="0.72"
    />
</g>
</svg>
