<svg xmlns="http://www.w3.org/2000/svg" viewBox="0 0 64 64">
  <rect width="64" height="64" rx="14" fill="#203b2b"/>
  <path d="M21 43h22l-3 13H24z" fill="#c56e4b"/>
  <path d="M18 39h28v7H18z" rx="3" fill="#e39768"/>
  <path d="M32 10c7 0 10 6 10 13v16H22V23c0-7 3-13 10-13z" fill="#79b681"/>
  <path d="M27 13v26M37 13v26M22 27h20" fill="none" stroke="#d8edc8" stroke-linecap="round" stroke-width="2"/>
  <path d="M22 24c-6-1-8 3-8 8v5h8M42 20c6-1 8 3 8 8v4h-8" fill="none" stroke="#79b681" stroke-linecap="round" stroke-width="6"/>
</svg>
